<?xml version="1.0" encoding="UTF-8"?><svg id="Layer_1" xmlns="http://www.w3.org/2000/svg" viewBox="0 0 445.7 212.31"><defs><style>.cls-1{fill:#fff;}</style></defs><path class="cls-1" d="m6.89,186.57c.01-1.19.99-1.39,1.63-1.79,4.01-2.57,8.22-4.82,12.26-7.35,1.88-1.18,3.94-2.12,5.65-3.55,2.95-2.47,3.58-6.02,4.05-9.55.27-2.04.24-4.13.24-6.19,0-29.81-.01-59.62.02-89.43,0-3.1-.53-6.12-1.06-9.12-.41-2.3-2.24-4.1-4.03-5.48-4.05-3.11-8.01-6.24-11.53-9.98-3.32-3.52-6.13-7.35-8.28-11.61-2.3-4.53-4.32-9.23-4.29-14.74,1.31.71,2.42,1.36,3.58,1.93,1.68.83,3.15,1.99,4.84,2.82,4.7,2.32,9.77,2.98,14.86,3.76,9.43,1.45,18.92.94,28.39,1.05,13.55.16,27.1-.06,40.65.21,8.91.18,17.73,1.25,26.37,3.75,7.82,2.26,15.12,5.51,21.81,10.07,4.87,3.32,9.47,7.02,13.4,11.44,3.8,4.26,7.13,8.83,9.98,13.83,1.73,3.04,3.01,6.25,4.63,9.32.58,1.09.4,2.42,1.03,3.52.23.4-.21.72-.56.92-2.43,1.42-4.82,2.91-7.29,4.25-3.42,1.85-6.47,4.22-9.26,6.86-3.88,3.67-7.59,7.51-11.37,11.28-.31.31-.72.58-.78,1.25,6.78-1.02,13.3-3.21,20.6-3.82-1.16,1.48-2.11,2.63-3.07,3.65-4.05,4.26-7.36,8.99-9.85,14.3-2.27,4.84-3.89,9.87-4.27,15.25-.35,5.1-1.18,10.15-1.37,15.26-.04,1.08-.83,2.16.07,3.34,1.82-1.18,1.97-3.74,3.95-4.65.42.29.49.65.4,1.08-.96,4.46-.69,8.96-.3,13.44.1,1.11.19,2.24.33,3.35.22,1.68-.33,2.74-1.75,3.68-2.92,1.94-5.62,4.18-8.61,6.04-2.39,1.49-4.93,2.67-7.45,3.89-3.2,1.55-6.52,2.82-9.97,3.68-5.49,1.38-10.94,2.75-16.62,3.4-6.91.79-13.81.54-20.71.58-24.46.12-48.93.05-73.39.05-.97,0-1.94,0-2.95,0Zm68.24-38.61c7.86-.3,15.54.45,23.19-.4,5.71-.64,11.16-2.11,16.05-5.41,5.71-3.87,9.53-9.2,12.11-15.42,2.4-5.79,2.94-12.02,3.24-18.23.2-4.16-.35-8.28-.97-12.4-.84-5.61-2.9-10.76-5.8-15.58-3.28-5.46-8.44-8.78-13.97-11.43-5.36-2.56-11.26-2.83-17.09-3.02-4.99-.16-9.99-.05-14.99-.05-.56,0-1.15-.12-1.76.28v81.66Z"/><path class="cls-1" d="m343.99,66.15c-.08.8-.14,1.42-.23,2.26-11.99-1.2-23.69-.53-34.72,5.42.42-1.63,2.21-2.25,2.44-3.86-.94-.66-1.75-.21-2.56.17-3.07,1.42-6.09,2.95-9.1,4.79-.38-.94-.29-1.74-.25-2.51.22-3.61-.22-7.18-.66-10.74-.45-3.69-2.71-6.31-5.61-8.44-3.68-2.7-7.18-5.65-10.23-9.01-2.93-3.23-5.94-6.53-7.71-10.6-1.3-2.98-3.14-5.7-4.03-8.88-.63-2.25-1-4.49-1.19-6.87,1.31-.04,2.22.86,2.7,1.37,1.68,1.78,3.98,2.14,5.99,3.06,4.79,2.21,9.89,3.37,15.13,4.05,3.44.44,6.9.51,10.33.79,4.47.36,9.04.22,13.57.23,13.95.01,27.91.07,41.86.09,5.42,0,10.78.72,16.16,1.14,3.93.31,7.68,1.34,11.52,1.98,3.3.55,6.49,2.05,9.61,3.41,5.16,2.25,10.25,4.68,14.77,8.09,3.37,2.54,6.98,4.76,9.92,7.86,5.05,5.32,9.52,11.02,13.14,17.45,4.42,7.84,7.21,16.19,8.75,24.97,1.07,6.12,1.61,12.35,1.11,18.57-.57,7.25-1.53,14.45-3.8,21.4-2,6.15-4.75,11.91-8.08,17.47-2.93,4.89-6.41,9.29-10.52,13.15-3.07,2.88-6.24,5.62-9.82,7.99-2.99,1.97-6.01,3.9-9.1,5.71-5.39,3.16-11.22,5.23-17.24,6.82-4.04,1.07-8.09,1.92-12.32,2.1-4.02.17-7.99,1.17-12.05.99-.71-.03-1.51.27-2.18-.55,3.59-6.03,5.93-12.49,4.94-19.68-.96-7.04-4.15-13.05-9.4-17.99.1-.15.2-.3.3-.45,1.69,0,3.37.06,5.05-.01,5.16-.22,10.3-.45,15.28-2.19,7.28-2.54,12.89-6.96,16.81-13.63,2.31-3.93,4.09-8.06,4.77-12.53,1.03-6.79,1.65-13.56.58-20.5-.87-5.68-2.34-11.07-4.8-16.18-1.74-3.6-4.53-6.41-7.56-9.04-4.18-3.62-9.13-5.41-14.34-6.65-2.97-.71-6.02-1.08-9.09-1.1-5.63-.04-11.25-.03-16.88-.03-.39,0-.78.07-1.3.12Z"/><path class="cls-1" d="m150.7,133.49c-.92-8.05,8.89-24.22,19.69-32.71,1.68.84,1.05,2.32.91,3.6-.36,3.39-1.51,6.65-1.63,10.1-.13,3.62-.42,7.23-.92,10.82-.09.64-.25,1.37.5,2.32,6.77-8.08,13.66-15.96,23.73-20.46-1.02,4.98-1.92,9.71-2.68,15,2.91-1.98,5.51-3.52,7.83-5.39,3.49-2.81,7.17-4.35,11.74-2.74-.49,1.56-1.98,2.45-2.95,3.71-2.2,2.87-4.54,5.63-6.15,8.89-1.47,2.98-3.03,5.94-3.93,9.17-1.12,4.04-2.11,8.15-1.88,12.33.34,6.19,1.64,12.19,5.47,17.3,1.96,2.62,4.24,4.87,7.14,6.6,3.6,2.15,7.38,3.43,11.5,3.43,3.05,0,6.03-.64,8.83-2.05,2.14-1.08,4.47-1.74,6.45-3.17,4.5-3.26,8.47-7.08,11.9-11.44,1.73-2.2,3.29-4.52,5.06-6.97,1.38,1.4,3.07,2.24,4.43,3.62,1.29,1.31,3.04,2.17,4.32,3.49,2.4,2.48,5.37,4.25,7.9,6.54,1.06.96,1.69,1.85.79,3.47-3.34,5.98-6.89,11.82-11.39,17.01-2.59,2.99-5.21,5.99-8.55,8.24-1.64,1.1-2.8,2.8-4.59,3.77-3.29,1.8-6.51,3.75-9.9,5.35-3.95,1.87-8.23,2.8-12.46,3.42-5.21.76-10.51,1.1-15.87.52-5.2-.56-10.14-1.86-14.8-4.02-5.44-2.52-10.61-5.62-14.8-10.02-1.99-2.08-3.73-4.4-5.64-6.56-.53-.6-1.09-1.5-2.12-1.11-.98.37-1.27,1.26-1.29,2.24-.05,1.99.37,3.91,1.15,5.72.24.56.11.84-.27,1.16-3.79-3.17-6.36-7.25-8.78-11.49-1.83-3.22-3.21-6.63-4.22-10.11-1.76-6.07-2.32-12.33-2.14-18.69.16-5.45,1.14-10.75,2.25-16.04.34-1.61,1.35-3.03,1.73-4.69.17-.73.28-1.44.25-2.17-.03-.71.33-1.6-.55-2.01-.89-.41-1.72.08-2.37.62-1.24,1.04-2.4,2.18-3.68,3.37Z"/><path class="cls-1" d="m346.37,200.6c-1.8,2.7-4.19,4.62-7.01,5.81-2.66,1.13-5.07,2.8-7.99,3.39-5.2,1.05-10.32,1.51-15.68.68-7.86-1.22-13.71-5.33-18.06-11.54-2.36-3.37-4.55-7.08-4.86-11.46-.05-.65-.35-1.28-.54-1.91-4.1,1.52-6.32,13.38-.26,20.3-3.41-1.01-6.3-2.48-8.65-4.91-2.06-2.13-3.84-4.51-4.9-7.27-1-2.6-1.44-5.37-1.33-8.18.13-3.27.42-6.54.39-9.81-.05-6.08-2.16-11.11-7.14-15.03-2.59-2.04-5.12-4.26-7.58-6.52-2.3-2.11-5.05-3.84-7.42-5.91-3.64-3.17-7.87-5.82-9.91-10.54-.92-2.12-1.45-4.42-1.5-6.6-.11-4.5-1.93-7.69-5.7-9.95-1.87-1.12-3.47-2.65-4.85-4.26-2.44-2.85-2.96-6.25-1.68-10.18.36.94.55,1.66.89,2.3,2.11,4.01,5.69,5.64,9.99,5.83,2.4.1,4.7.25,6.88,1.42,1.72.92,2.59,2.36,2.9,4.15.25,1.45.68,2.85.83,4.33.25,2.37,2.45,3.76,5.04,3.99,2.69.24,5.41.18,8.09.9,1.67.45,3,1.36,4.29,2.29,4.99,3.58,9.45,7.82,14.21,11.68,3.85,3.13,7.62,6.38,11.56,9.39,3.45,2.63,7.34,3.86,11.56,1.84,4.03-1.93,7.02-6.89,5.87-11.29-.09-.36-.14-.74-.21-1.13,2.32.32,5.4,3.72,6.95,8.05,2.66,7.45,2.02,14.41-3.58,20.41.32.65.89.73,1.47.77,5.85.39,11.44-.58,16.04-4.36,6-4.93,6.61-12.8,1.18-18.33-1.88-1.92-3.85-3.68-6.64-4.17.35-.68.83-.6,1.28-.6,8.7.07,16.39,2.71,22.43,9.17,4.91,5.25,7.34,11.54,6.58,18.77-.79,7.41-4.58,13.08-10.47,17.61-3.55,2.73-7.59,4.23-11.75,5.34-3.18.85-6.58.52-9.95.6,2.7,2.11,5.77,3.45,9.06,4.3,3.32.86,6.73.61,10.2.63Z"/><path class="cls-1" d="m175.3,112.61c.2-1.09.31-1.73.44-2.36.54-2.47.79-4.96.92-7.5.25-4.73-2.33-6.78-6.32-7.89-4-1.11-7.95-.32-11.91.21.43-1.18.93-1.79,2.41-2.67,2.62-1.56,5.06-3.5,7.72-4.89,2.65-1.38,5.33-2.77,8.05-4.06,1.85-.88,3.43-2.23,4.76-3.74.88-.99.63-2.44.08-3.59-1.43-3.02-3.69-5.39-6.38-7.27-.92-.64-1.65-1.52-2.72-2.03,5.2-.42,10.28.16,15.7,1.29-2.9-5.02-2.98-10.05-1.98-15.24,3.34,6.42,8.96,10.21,14.87,13.71,3.85,2.28,7.83,4.36,11.46,7.01,2.37,1.72,4.26,3.87,6.18,6.04-1.72-3.95-3.38-7.99-7.35-10.26-3.63-2.08-4.97-5.17-4.94-9.17.02-3.14-.12-6.28.33-9.39.43-2.94,1.43-5.73,2.67-8.4,2.07.3,1.51,1.97,1.62,2.85.38,3.25,1.65,6.11,3.35,8.79,3.48,5.52,8.07,10.02,13,14.26,2.56,2.21,5.05,4.56,7.49,6.92,3.47,3.36,6.9,6.75,9.64,11.09-1.73-5.14-4.82-9.09-8.4-12.67-3.05-3.05-6.22-5.99-9.45-8.85-1.98-1.75-4.2-3.44-5.48-5.86-1.26-2.39-1.25-5.07-.93-7.66.23-1.9.9-3.74,1.24-5.62.12-.65.45-1,.92-1.44.88.9.75,2.09.99,3.12,1.32,5.71,4.62,10.28,8.36,14.6,2.67,3.08,5.73,5.74,8.76,8.47,4.98,4.47,9.98,9.01,13.18,15.07,2.01,3.8,3.27,7.76,2.85,12.15-.08.87.03,1.78,1.33,2.1,1.54.39,2.4,1.95,3.23,4.91,1.47-.17,2.46-1.19,3.6-1.97,1.12-.77,1.39-2.37,2.82-2.84,1.51,9-5.15,20.93-10.87,22.62,0-1.06,0-2.06,0-3.06,0-3.68-1.79-5.84-5.28-7.06-1.7-.59-3.28-1.33-5.15-1.3-1.77.03-3.53-.19-5.37-.3-.09-.75.07-1.3.41-1.94.65-1.23,1.31-2.47,1.29-3.97-.04-2.33-.84-3.19-3.18-3.47-7.03-.84-13.91.22-20.78,1.52-.14.03-.24.23-.51.52,1.31.55,2.63.56,3.9.74.84.12,1.72-.02,2.58.04,1.63.12,2.14.85,1.5,2.32-.83,1.92-1.33,3.94-1.95,5.92-.28.89-.31,1.84-.03,2.7.63,1.96,1.92,2.27,4.55,1.12.41,1.56-.12,3.01-.43,4.44-.59,2.76.25,4.91,2.45,5.44,1.02.24,2.15.04,3.25.04-.42,4.55-12.47,11.52-16.53,9.57,2.14-1.84,3.92-3.88,5.1-6.77-2.8.28-5.12,1.57-7.82.73,1.11-1.19,2.15-2.12,2.94-3.31,2.67-4.09,2.97-8.3.85-12.67-.79-1.63-2.06-2.96-3.68-3.69-5.02-2.29-10.12-3.02-15.24-.23-.38.21-.7.37-1.09.11-.53-.34-.08-.71,0-1.03.4-1.56,1.41-2.77,2.4-3.98,2.51-3.06,5.23-5.9,8.86-7.68.21-.1.39-.26.82-.56-2.75-2.01-5.82-1.97-9.08-2.69,2.57-2.25,5.42-3.12,8.21-4.11,2.83-1,5.83-1.33,8.93-2.07-6.03-2.69-24.4,3.29-26.43,8.6,2.53,1.14,5.48.61,8.29,1.97-9.37,2.99-17.46,7.67-25.02,14.25Zm58.46-25.82c.42,2.63,1.24,4.72,2.75,6.48,1.23,1.43,2.71,2.56,4.61,2.95,1.36.28,1.59-.13,1.36-1.48-.26-1.52-1.41-2.42-2.25-3.48-1.61-2.02-3.61-3.64-6.47-4.47Z"/><path class="cls-1" d="m179.56,59.81c-1.76-2.41-2.89-4.99-3.57-7.72-1.27-5.09-1.2-10.28-.63-15.46.45-4.15,1.63-8.14,3.46-11.85,1.46-2.96,3.33-5.78,5.63-8.2,3.82-4.03,8.05-7.55,13.1-10,4.44-2.15,9.14-3.37,13.99-4.07,6.45-.92,12.92-.61,19.19.83,5.75,1.32,11.49,3.11,16.2,6.98,4.68,3.84,8.62,8.21,11.1,13.9,1.89,4.33,2.93,8.74,3.4,13.41.58,5.67-.35,11.02-2,16.45-2.02,6.67-5.09,12.69-9.13,18.3-5.85-5.58-12.07-10.66-17.19-16.88-1.62-1.96-.15-3.39.4-4.9,2.65-7.29,3.01-14.53-.82-21.44-2.54-4.59-6.82-6.71-12.11-7.04-5.54-.34-9.79,1.96-12.95,6.18-2.32,3.1-4.08,6.64-3.44,10.77.25,1.61-.62,2.83-1.09,4.19-1.61,4.68-2.19,9.52-2.24,14.44,0,.68.15,1.38-.17,2.02-.55.14-1.04.07-1.45-.31-2.24-2.1-5.17-3.5-6.66-6.34-1.19-2.27-2.19-4.65-3.23-7.01-1.23-2.79-2.42-5.6-3.95-8.45-2.2,7.33-5.64,14.28-5.85,22.2Z"/><path class="cls-1" d="m276.98,109.57c-.36-6.46,14.78-25.84,22.06-28.48-.28,1.78-1.58,2.95-2.15,4.46-.35.92-.69,1.88-.03,2.5.65.62,1.59.51,2.59-.02,3.48-1.88,6-4.94,9.16-7.21,3.29-2.36,6.61-4.62,10.51-5.83.99-.31,2.02-.72,3.35-.28-1.39.96-2.61,1.78-3.8,2.63-1.02.73-1.92,1.58-2.56,2.68-.37.64-.46,1.29.07,1.88.43.47.71.89,1.66.65,3.34-.83,6.56-2.13,9.86-2.92,2.86-.69,6-.82,9.04-.56,3.54.29,7.01.97,10.41,2.05,3.75,1.19,7.11,3.16,10.48,5.12,2.96,1.72,5.5,3.91,7.98,6.52-1.41.79-2.84.6-3.95.3-2.38-.63-4.67.04-6.94.2-4.31.31-8.63,1.09-12.67,2.74-2.22.91-4.61,1.48-6.55,3.01-1.01.8-2,.83-3.12.16-1.83-1.1-3.82-1.77-5.91-2.3-5.09-1.3-9.98-.58-14.75,1.25-4.23,1.62-7.48,4.47-10.54,7.87-3.62,4.02-6.59,8.47-9.61,12.86-2.16,3.13-4.21,6.48-5.7,10.07-.84,2.03-2.31,3.74-2.85,6.53-1.72-2.55-4.06-3.47-5.79-5.28-2.13-2.22-4.91-3.78-7.82-4.96-.86-.35-.98-.54-.41-1.44,2.36-3.72,5.65-6.63,8.55-9.87,2.06-2.31,4.3-4.47,6.74-6.44,1.96-1.59,3.79-3.36,5.79-4.93,2.19-1.72,4.52-3.22,6.93-4.58,3.25-1.83,6.52-3.66,9.93-5.17,2.72-1.2,5.63-2.04,8.62-2.38,1.66-.19,3.14-1.07,4.86-.93-4.57-1.08-11.42.1-23.53,5.26-7.6,3.23-13.97,8.63-19.91,14.86Z"/><path class="cls-1" d="m343.77,141.1c-3.33-1.07-6.48-1.69-9.66-2.16-3.09-.46-6.18-.19-9.24.25-1.57.23-3.19-.1-4.73.45-.52.19-.98-.22-1.39-.52-4.19-3.02-8.6-5.68-13.12-8.16-.69-.38-1.11-1.18-2.3-1.22,1.06,2.76,1.82,5.48,2.84,8.15,1.04,2.72,2.37,5.4,2.13,8.5-.23,2.96-3.26,4.6-5.44,3.83-2.68-.94-3.35-.44-3.31-4.36.09-9.01.05-18.03.01-27.04,0-1.6.33-2.87,1.39-4.2,2.54-3.16,4.79-6.59,8.12-8.99,5.38-3.89,11.37-4.94,17.77-3.16,1.55.43,3.03,1.1,4.24,2.31,2.33,2.33,4.55,1.96,7.13-.81,1.44-1.55,3.24-2.6,5.58-2.69v39.82Z"/><path class="cls-1" d="m326.35,165.08c1.64-5.13,1-10.21.37-15.32,4.38.54,6.86,3.91,7.09,8.58.13,2.69-4.04,6.86-7.46,6.75Z"/><path class="cls-1" d="m343.75,70.35c0,1.07-.08,1.8.02,2.51.22,1.65-.48,2.11-1.97,1.67-1.87-.55-3.83-.64-5.79-1.03,2.36-1.56,5.05-2.14,7.75-3.15Z"/></svg>